<?xml version="1.0" standalone="no"?>
<!DOCTYPE svg PUBLIC "-//W3C//DTD SVG 20010904//EN"
 "http://www.w3.org/TR/2001/REC-SVG-20010904/DTD/svg10.dtd">
<svg version="1.0" xmlns="http://www.w3.org/2000/svg"
 width="512.000000pt" height="512.000000pt" viewBox="0 0 512.000000 512.000000"
 preserveAspectRatio="xMidYMid meet">
<metadata>
Created by potrace 1.11, written by Peter Selinger 2001-2013
</metadata>
<g transform="translate(0.000000,512.000000) scale(0.100000,-0.100000)"
fill="#000000" stroke="none">
<path d="M187 3813 c-4 -3 -7 -570 -7 -1260 l0 -1253 175 0 175 0 2 911 3 911
347 -739 347 -738 154 -3 154 -2 46 97 c63 135 373 803 519 1118 67 143 125
264 129 270 5 5 9 -400 9 -908 l0 -917 175 0 175 0 -2 1258 -3 1257 -198 0
-197 0 -134 -290 c-161 -350 -450 -978 -571 -1242 -49 -106 -92 -193 -95 -193
-6 0 -87 170 -440 930 -83 179 -201 432 -262 563 l-111 237 -192 0 c-105 0
-195 -3 -198 -7z"/>
<path d="M3047 3814 c-4 -4 -7 -571 -7 -1261 l0 -1253 185 0 185 0 0 560 0
560 585 0 585 0 0 -560 0 -560 183 2 182 3 0 1255 0 1255 -182 3 -183 2 0
-530 0 -530 -585 0 -585 0 -2 528 -3 527 -176 3 c-96 1 -178 -1 -182 -4z"/>
</g>
</svg>
