<svg style="height: 0; width: 0; display: block" xmlns="http://www.w3.org/2000/svg">
    <symbol viewBox="0 0 24 24" id="email">
        <path class="primary" d="M22 8.62V18a2 2 0 0 1-2 2H4a2 2 0 0 1-2-2V8.62l9.55 4.77a1 1 0 0 0 .9 0L22 8.62z"/><path class="secondary" fill="currentColor" d="M12 11.38l-10-5V6c0-1.1.9-2 2-2h16a2 2 0 0 1 2 2v.38l-10 5z"/>
    </symbol>
    <symbol id="skype" viewBox="0 0 16 16" fill-rule="evenodd" clip-rule="evenodd" stroke-linejoin="round" stroke-miterlimit="1.414" >
        <path fill-rule="nonzero" d="M8.035 12.6c-2.685 0-3.885-1.322-3.885-2.313 0-.51.374-.865.89-.865 1.15 0 .85 1.653 2.995 1.653 1.096 0 1.703-.597 1.703-1.208 0-.368-.18-.775-.904-.954l-2.387-.597C4.524 7.833 4.175 6.79 4.175 5.812c0-2.034 1.91-2.798 3.704-2.798 1.65 0 3.6.916 3.6 2.136 0 .523-.46.827-.97.827-.98 0-.8-1.36-2.78-1.36-.98 0-1.53.444-1.53 1.08 0 .636.77.84 1.44.993l1.76.392c1.93.433 2.42 1.566 2.42 2.633 0 1.652-1.27 2.886-3.82 2.886m7.4-3.26l-.02.09-.03-.16c.01.03.03.05.04.08.08-.45.12-.91.12-1.37 0-1.02-.2-2.01-.6-2.95-.38-.9-.93-1.71-1.62-2.4-.7-.69-1.5-1.24-2.4-1.62C10.01.59 9.02.39 8 .39c-.48 0-.964.047-1.43.137l.08.04-.16-.023.08-.016C5.927.183 5.205 0 4.472 0 3.278 0 2.155.466 1.31 1.313.465 2.16 0 3.286 0 4.483c0 .763.195 1.512.563 2.175l.013-.083.028.16-.04-.077c-.076.43-.115.867-.115 1.305 0 1.022.2 2.014.59 2.948.38.91.92 1.72 1.62 2.41.69.7 1.5 1.24 2.4 1.63.93.4 1.92.6 2.94.6.44 0 .89-.04 1.32-.12l-.08-.04.16.03-.09.02c.67.38 1.42.58 2.2.58 1.19 0 2.31-.46 3.16-1.31.84-.84 1.31-1.97 1.31-3.17 0-.76-.2-1.51-.57-2.18 "></path>
    </symbol>

    <symbol  viewBox="0 0 24 24" id="mobile">
        <path class="primary" d="M4 2h4a1 1 0 0 1 .98.8l1 5a1 1 0 0 1-.27.9l-2.52 2.52a12.05 12.05 0 0 0 5.59 5.59l2.51-2.52a1 1 0 0 1 .9-.27l5 1c.47.1.81.5.81.98v4a2 2 0 0 1-2 2h-2A16 16 0 0 1 2 6V4c0-1.1.9-2 2-2z"/><path class="secondary" fill="currentColor" d="M22 10a1 1 0 0 1-2 0 6 6 0 0 0-6-6 1 1 0 0 1 0-2 8 8 0 0 1 8 8zm-4 0a1 1 0 0 1-2 0 2 2 0 0 0-2-2 1 1 0 0 1 0-2 4 4 0 0 1 4 4z"/>
    </symbol>

    <symbol  viewBox="0 0 24 24" id="at">
        <path class="secondary" d="M15.6 15.47A4.99 4.99 0 0 1 7 12a5 5 0 0 1 10 0v1.5a1.5 1.5 0 1 0 3 0V12a8 8 0 1 0-4.94 7.4 1 1 0 1 1 .77 1.84A10 10 0 1 1 22 12v1.5a3.5 3.5 0 0 1-6.4 1.97zM12 15a3 3 0 1 0 0-6 3 3 0 0 0 0 6z"/>
    </symbol>

    <symbol id="twitter" viewBox="0 0 16 16" fill-rule="evenodd" clip-rule="evenodd" stroke-linejoin="round" stroke-miterlimit="1.414">
        <path fill-rule="nonzero" d="M16 3.038c-.59.26-1.22.437-1.885.517.677-.407 1.198-1.05 1.443-1.816-.634.37-1.337.64-2.085.79-.598-.64-1.45-1.04-2.396-1.04-1.812 0-3.282 1.47-3.282 3.28 0 .26.03.51.085.75-2.728-.13-5.147-1.44-6.766-3.42C.83 2.58.67 3.14.67 3.75c0 1.14.58 2.143 1.46 2.732-.538-.017-1.045-.165-1.487-.41v.04c0 1.59 1.13 2.918 2.633 3.22-.276.074-.566.114-.865.114-.21 0-.41-.02-.61-.058.42 1.304 1.63 2.253 3.07 2.28-1.12.88-2.54 1.404-4.07 1.404-.26 0-.52-.015-.78-.045 1.46.93 3.18 1.474 5.04 1.474 6.04 0 9.34-5 9.34-9.33 0-.14 0-.28-.01-.42.64-.46 1.2-1.04 1.64-1.7z "/>
    </symbol>

    <symbol id="linkedin" viewBox="0 0 16 16" fill-rule="evenodd" clip-rule="evenodd" stroke-linejoin="round" stroke-miterlimit="1.414">
        <path fill-rule="nonzero" d="M13.632 13.635h-2.37V9.922c0-.886-.018-2.025-1.234-2.025-1.235 0-1.424.964-1.424 1.96v3.778h-2.37V6H8.51v1.04h.03c.318-.6 1.092-1.233 2.247-1.233 2.4 0 2.845 1.58 2.845 3.637v4.188zM3.558 4.955c-.762 0-1.376-.617-1.376-1.377 0-.758.614-1.375 1.376-1.375.76 0 1.376.617 1.376 1.375 0 .76-.617 1.377-1.376 1.377zm1.188 8.68H2.37V6h2.376v7.635zM14.816 0H1.18C.528 0 0 .516 0 1.153v13.694C0 15.484.528 16 1.18 16h13.635c.652 0 1.185-.516 1.185-1.153V1.153C16 .516 15.467 0 14.815 0z "></path>
    </symbol>

    <symbol id="stackoverflow" viewBox="0 0 16 16" fill-rule="evenodd" clip-rule="evenodd" stroke-linejoin="round" stroke-miterlimit="1.414">
        <path fill-rule="nonzero" d="M12.658 14.577v-4.27h1.423V16H1.23v-5.693h1.42v4.27h10.006zm-8.583-1.423h7.16V11.73h-7.16v1.424zm.173-3.235l6.987 1.46.3-1.38L4.55 8.54l-.302 1.38zm.906-3.37l6.47 3.02.602-1.3-6.47-3.02-.602 1.29zm1.81-3.19l5.478 4.57.906-1.08L7.87 2.28l-.9 1.078zM10.502 0L9.338.863l4.27 5.735 1.164-.862L10.5 0z "></path>
    </symbol>

    <symbol id="github" viewBox="0 0 16 16" fill-rule="evenodd" clip-rule="evenodd" stroke-linejoin="round" stroke-miterlimit="1.414">
        <path fill-rule="nonzero" d="M8 0C3.58 0 0 3.582 0 8c0 3.535 2.292 6.533 5.47 7.59.4.075.547-.172.547-.385 0-.19-.007-.693-.01-1.36-2.226.483-2.695-1.073-2.695-1.073-.364-.924-.89-1.17-.89-1.17-.725-.496.056-.486.056-.486.803.056 1.225.824 1.225.824.714 1.223 1.873.87 2.33.665.072-.517.278-.87.507-1.07-1.777-.2-3.644-.888-3.644-3.953 0-.873.31-1.587.823-2.147-.09-.202-.36-1.015.07-2.117 0 0 .67-.215 2.2.82.64-.178 1.32-.266 2-.27.68.004 1.36.092 2 .27 1.52-1.035 2.19-.82 2.19-.82.43 1.102.16 1.915.08 2.117.51.56.82 1.274.82 2.147 0 3.073-1.87 3.75-3.65 3.947.28.24.54.73.54 1.48 0 1.07-.01 1.93-.01 2.19 0 .21.14.46.55.38C13.71 14.53 16 11.53 16 8c0-4.418-3.582-8-8-8 "></path>
    </symbol>
    
    <symbol  viewBox="0 0 24 24" id="work">
        <path class="primary" d="M10 14.92V16a1 1 0 0 0 1 1h2a1 1 0 0 0 1-1v-1.08c2.83-.24 5.53-.96 8-2.1V20a2 2 0 0 1-2 2H4a2 2 0 0 1-2-2v-7.18a23.85 23.85 0 0 0 8 2.1z"/>
        <path fill="currentColor" class="secondary" d="M14 12.92V12a1 1 0 0 0-1-1h-2a1 1 0 0 0-1 1v.92a23.85 23.85 0 0 1-8-2.1V8c0-1.1.9-2 2-2h3V5a3 3 0 0 1 3-3h4a3 3 0 0 1 3 3v1h3a2 2 0 0 1 2 2v2.82a23.85 23.85 0 0 1-8 2.1zM15 6V5a1 1 0 0 0-1-1h-4a1 1 0 0 0-1 1v1h6z"/>
    </symbol>
    <symbol id="code" viewBox="0 0 24 24">
        <rect width="18" height="18" x="3" y="3" class="primary" rx="2"/>
        <path fill="currentColor" class="secondary" d="M8.7 13.3a1 1 0 0 1-1.4 1.4l-2-2a1 1 0 0 1 0-1.4l2-2a1 1 0 1 1 1.4 1.4L7.42 12l1.3 1.3zm6.6 0l1.29-1.3-1.3-1.3a1 1 0 1 1 1.42-1.4l2 2a1 1 0 0 1 0 1.4l-2 2a1 1 0 0 1-1.42-1.4zm-3.32 3.9a1 1 0 0 1-1.96-.4l2-10a1 1 0 0 1 1.96.4l-2 10z"/>
    </symbol>

    <symbol id="thermostat_half" viewBox="0 0 24 24">
        <path class="primary" d="M17 12.1a7 7 0 1 1-10 0V5a5 5 0 1 1 10 0v7.1zm-1.43 1.4l-.57-.58V5a3 3 0 0 0-6 0v7.92l-.57.58a5 5 0 1 0 7.14 0z"/>
        <path fill="currentColor" class="secondary" d="M11 14.17V10a1 1 0 0 1 2 0v4.17a3 3 0 1 1-2 0z"/>
    </symbol>

    <symbol id="family" viewBox="0 0 24 24">
        <path class="primary" d="M12 13a3 3 0 0 1 3-3h4a3 3 0 0 1 3 3v3a1 1 0 0 1-1 1h-8a1 1 0 0 1-1-1 1 1 0 0 1-1 1H3a1 1 0 0 1-1-1v-3a3 3 0 0 1 3-3h4a3 3 0 0 1 3 3zM7 9a3 3 0 1 1 0-6 3 3 0 0 1 0 6zm10 0a3 3 0 1 1 0-6 3 3 0 0 1 0 6z"/>
        <path fill="currentColor" class="secondary" d="M12 13a3 3 0 1 1 0-6 3 3 0 0 1 0 6zm-3 1h6a3 3 0 0 1 3 3v3a1 1 0 0 1-1 1H7a1 1 0 0 1-1-1v-3a3 3 0 0 1 3-3z"/>
    </symbol>

    <symbol id="trophy" viewBox="0 0 24 24">
        <path fill="currentColor" class="secondary" d="M7 4v2H4v4c0 1.1.9 2 2 2h1v2H6a4 4 0 0 1-4-4V6c0-1.1.9-2 2-2h3zm10 2V4h3a2 2 0 0 1 2 2v4a4 4 0 0 1-4 4h-1v-2h1a2 2 0 0 0 2-2V6h-3zm-3 14h2a1 1 0 0 1 0 2H8a1 1 0 0 1 0-2h2a1 1 0 0 0 1-1v-3h2v3a1 1 0 0 0 1 1z"/>
        <path class="primary" d="M8 2h8a2 2 0 0 1 2 2v7a6 6 0 1 1-12 0V4c0-1.1.9-2 2-2z"/>
    </symbol>

    <symbol id="book" viewBox="0 0 24 24">
        <g>
            <path fill="currentColor" class="secondary" d="M12 21a2 2 0 0 1-1.41-.59l-.83-.82A2 2 0 0 0 8.34 19H4a1 1 0 0 1-1-1V4a1 1 0 0 1 1-1h4a5 5 0 0 1 4 2v16z"/>
            <path class="primary" d="M12 21V5a5 5 0 0 1 4-2h4a1 1 0 0 1 1 1v14a1 1 0 0 1-1 1h-4.34a2 2 0 0 0-1.42.59l-.83.82A2 2 0 0 1 12 21z"/>
        </g>
    </symbol>
    

    <symbol id="certificate" viewBox="0 0 24 24">
        <path class="primary" d="M4 3h16a2 2 0 0 1 2 2v12a2 2 0 0 1-2 2H4a2 2 0 0 1-2-2V5c0-1.1.9-2 2-2zm16 12V7a2 2 0 0 1-2-2H6a2 2 0 0 1-2 2v8a2 2 0 0 1 2 2h12c0-1.1.9-2 2-2zM8 7h8a1 1 0 0 1 0 2H8a1 1 0 1 1 0-2z"/>
        <path fill="currentColor" class="secondary" d="M11.65 18.23a4 4 0 1 1 4.7 0l2.5 3.44-2.23-.18-1.48 1.68-.59-4.2a4.04 4.04 0 0 1-1.1 0l-.6 4.2-1.47-1.68-2.23.18 2.5-3.44zM14 17a2 2 0 1 0 0-4 2 2 0 0 0 0 4z"/>
    </symbol>

    <symbol id="point_arrow_right" viewBox="0 0 24 24">
        <circle cx="12" cy="12" r="10" class="primary"/>
        <path fill="currentColor" class="secondary" d="M14.59 13H7a1 1 0 0 1 0-2h7.59l-2.3-2.3a1 1 0 1 1 1.42-1.4l4 4a1 1 0 0 1 0 1.4l-4 4a1 1 0 0 1-1.42-1.4l2.3-2.3z"/>
    </symbol>

    <symbol id="library" viewBox="0 0 24 24">
        <path class="primary" d="M3 8h18v1a1 1 0 0 1-1 1H4a1 1 0 0 1-1-1V8zm6 3l-1 1v4l1 1H4l1-1v-4l-1-1h5zm5.5 0l-1 1v4l1 1h-5l1-1v-4l-1-1h5zm5.5 0l-1 1v4l1 1h-5l1-1v-4l-1-1h5zM3 20h18a1 1 0 0 1 0 2H3a1 1 0 0 1 0-2z"/>
        <path fill="currentColor"  class="secondary" d="M4 18h16a1 1 0 0 1 1 1v1H3v-1a1 1 0 0 1 1-1zm8.4-15.91l9 4c1 .43.68 1.91-.4 1.91H3c-1.08 0-1.4-1.48-.4-1.91l9-4a1 1 0 0 1 .8 0z"/>
    </symbol>


</svg>